<svg width="100" height="15" viewBox="0 0 100 15" fill="none" xmlns="http://www.w3.org/2000/svg">
<path d="M7.18206 0.506749L5.32306 4.27775L1.16306 4.88475C0.99522 4.91014 0.837799 4.98186 0.708509 5.09185C0.579219 5.20184 0.483191 5.34572 0.43123 5.50732C0.37927 5.66892 0.37344 5.84181 0.414396 6.00654C0.455352 6.17127 0.541469 6.3213 0.663056 6.43975L3.67306 9.37275L2.96106 13.5157C2.93251 13.6832 2.95132 13.8552 3.01537 14.0125C3.07942 14.1698 3.18616 14.306 3.32353 14.4058C3.46091 14.5057 3.62346 14.5651 3.79283 14.5775C3.9622 14.5898 4.13165 14.5546 4.28206 14.4757L8.00406 12.5197L11.7261 14.4757C11.8765 14.5546 12.0459 14.5898 12.2153 14.5775C12.3847 14.5651 12.5472 14.5057 12.6846 14.4058C12.822 14.306 12.9287 14.1698 12.9927 14.0125C13.0568 13.8552 13.0756 13.6832 13.0471 13.5157L12.3311 9.37175L15.3411 6.43875C15.4626 6.3203 15.5488 6.17027 15.5897 6.00554C15.6307 5.84081 15.6248 5.66792 15.5729 5.50632C15.5209 5.34472 15.4249 5.20084 15.2956 5.09085C15.1663 4.98086 15.0089 4.90914 14.8411 4.88375L10.6811 4.27675L8.81706 0.506749C8.74168 0.35432 8.62518 0.226002 8.48072 0.136284C8.33627 0.0465665 8.16961 -0.000976563 7.99956 -0.000976562C7.82951 -0.000976563 7.66284 0.0465665 7.51839 0.136284C7.37393 0.226002 7.25744 0.35432 7.18206 0.506749Z" fill="#06C167"/>
<path d="M28.1821 0.506749L26.3231 4.27775L22.1631 4.88475C21.9952 4.91014 21.8378 4.98186 21.7085 5.09185C21.5792 5.20184 21.4832 5.34572 21.4312 5.50732C21.3793 5.66892 21.3734 5.84181 21.4144 6.00654C21.4554 6.17127 21.5415 6.3213 21.6631 6.43975L24.6731 9.37275L23.9611 13.5157C23.9325 13.6832 23.9513 13.8552 24.0154 14.0125C24.0794 14.1698 24.1862 14.306 24.3235 14.4058C24.4609 14.5057 24.6235 14.5651 24.7928 14.5775C24.9622 14.5898 25.1316 14.5546 25.2821 14.4757L29.0041 12.5197L32.7261 14.4757C32.8765 14.5546 33.0459 14.5898 33.2153 14.5775C33.3847 14.5651 33.5472 14.5057 33.6846 14.4058C33.822 14.306 33.9287 14.1698 33.9927 14.0125C34.0568 13.8552 34.0756 13.6832 34.0471 13.5157L33.3311 9.37175L36.3411 6.43875C36.4626 6.3203 36.5488 6.17027 36.5897 6.00554C36.6307 5.84081 36.6248 5.66792 36.5729 5.50632C36.5209 5.34472 36.4249 5.20084 36.2956 5.09085C36.1663 4.98086 36.0089 4.90914 35.8411 4.88375L31.6811 4.27675L29.8171 0.506749C29.7417 0.35432 29.6252 0.226002 29.4807 0.136284C29.3363 0.0465665 29.1696 -0.000976563 28.9996 -0.000976562C28.8295 -0.000976563 28.6628 0.0465665 28.5184 0.136284C28.3739 0.226002 28.2574 0.35432 28.1821 0.506749Z" fill="#06C167"/>
<path d="M49.1821 0.506749L47.3231 4.27775L43.1631 4.88475C42.9952 4.91014 42.8378 4.98186 42.7085 5.09185C42.5792 5.20184 42.4832 5.34572 42.4312 5.50732C42.3793 5.66892 42.3734 5.84181 42.4144 6.00654C42.4554 6.17127 42.5415 6.3213 42.6631 6.43975L45.6731 9.37275L44.9611 13.5157C44.9325 13.6832 44.9513 13.8552 45.0154 14.0125C45.0794 14.1698 45.1862 14.306 45.3235 14.4058C45.4609 14.5057 45.6235 14.5651 45.7928 14.5775C45.9622 14.5898 46.1316 14.5546 46.2821 14.4757L50.0041 12.5197L53.7261 14.4757C53.8765 14.5546 54.0459 14.5898 54.2153 14.5775C54.3847 14.5651 54.5472 14.5057 54.6846 14.4058C54.822 14.306 54.9287 14.1698 54.9927 14.0125C55.0568 13.8552 55.0756 13.6832 55.0471 13.5157L54.3311 9.37175L57.3411 6.43875C57.4626 6.3203 57.5488 6.17027 57.5897 6.00554C57.6307 5.84081 57.6248 5.66792 57.5729 5.50632C57.5209 5.34472 57.4249 5.20084 57.2956 5.09085C57.1663 4.98086 57.0089 4.90914 56.8411 4.88375L52.6811 4.27675L50.8171 0.506749C50.7417 0.35432 50.6252 0.226002 50.4807 0.136284C50.3363 0.0465665 50.1696 -0.000976563 49.9996 -0.000976562C49.8295 -0.000976563 49.6628 0.0465665 49.5184 0.136284C49.3739 0.226002 49.2574 0.35432 49.1821 0.506749Z" fill="#06C167"/>
<path d="M70.1821 0.506749L68.3231 4.27775L64.1631 4.88475C63.9952 4.91014 63.8378 4.98186 63.7085 5.09185C63.5792 5.20184 63.4832 5.34572 63.4312 5.50732C63.3793 5.66892 63.3734 5.84181 63.4144 6.00654C63.4554 6.17127 63.5415 6.3213 63.6631 6.43975L66.6731 9.37275L65.9611 13.5157C65.9325 13.6832 65.9513 13.8552 66.0154 14.0125C66.0794 14.1698 66.1862 14.306 66.3235 14.4058C66.4609 14.5057 66.6235 14.5651 66.7928 14.5775C66.9622 14.5898 67.1316 14.5546 67.2821 14.4757L71.0041 12.5197L74.7261 14.4757C74.8765 14.5546 75.0459 14.5898 75.2153 14.5775C75.3847 14.5651 75.5472 14.5057 75.6846 14.4058C75.822 14.306 75.9287 14.1698 75.9927 14.0125C76.0568 13.8552 76.0756 13.6832 76.0471 13.5157L75.3311 9.37175L78.3411 6.43875C78.4626 6.3203 78.5488 6.17027 78.5897 6.00554C78.6307 5.84081 78.6248 5.66792 78.5729 5.50632C78.5209 5.34472 78.4249 5.20084 78.2956 5.09085C78.1663 4.98086 78.0089 4.90914 77.8411 4.88375L73.6811 4.27675L71.8171 0.506749C71.7417 0.35432 71.6252 0.226002 71.4807 0.136284C71.3363 0.0465665 71.1696 -0.000976563 70.9996 -0.000976562C70.8295 -0.000976563 70.6628 0.0465665 70.5184 0.136284C70.3739 0.226002 70.2574 0.35432 70.1821 0.506749Z" fill="#06C167"/>
<path d="M91.1821 0.506749L89.3231 4.27775L85.1631 4.88475C84.9952 4.91014 84.8378 4.98186 84.7085 5.09185C84.5792 5.20184 84.4832 5.34572 84.4312 5.50732C84.3793 5.66892 84.3734 5.84181 84.4144 6.00654C84.4554 6.17127 84.5415 6.3213 84.6631 6.43975L87.6731 9.37275L86.9611 13.5157C86.9325 13.6832 86.9513 13.8552 87.0154 14.0125C87.0794 14.1698 87.1862 14.306 87.3235 14.4058C87.4609 14.5057 87.6235 14.5651 87.7928 14.5775C87.9622 14.5898 88.1316 14.5546 88.2821 14.4757L92.0041 12.5197L95.7261 14.4757C95.8765 14.5546 96.0459 14.5898 96.2153 14.5775C96.3847 14.5651 96.5472 14.5057 96.6846 14.4058C96.822 14.306 96.9287 14.1698 96.9927 14.0125C97.0568 13.8552 97.0756 13.6832 97.0471 13.5157L96.3311 9.37175L99.3411 6.43875C99.4626 6.3203 99.5488 6.17027 99.5897 6.00554C99.6307 5.84081 99.6248 5.66792 99.5729 5.50632C99.5209 5.34472 99.4249 5.20084 99.2956 5.09085C99.1663 4.98086 99.0089 4.90914 98.8411 4.88375L94.6811 4.27675L92.8171 0.506749C92.7417 0.35432 92.6252 0.226002 92.4807 0.136284C92.3363 0.0465665 92.1696 -0.000976563 91.9996 -0.000976562C91.8295 -0.000976563 91.6628 0.0465665 91.5184 0.136284C91.3739 0.226002 91.2574 0.35432 91.1821 0.506749Z" fill="#06C167"/>
</svg>
